<svg width="121" height="52" viewBox="0 0 121 52" fill="none" xmlns="http://www.w3.org/2000/svg">
    <rect x="0.5" width="120" height="52" rx="5" fill="#F5F5F5"/>
    <path d="M41.4091 37.8182C40.6858 37.8182 39.9921 37.5309 39.4806 37.0194C38.9692 36.508 38.6818 35.8143 38.6818 35.091C38.6818 34.3676 38.9692 33.6739 39.4806 33.1625C39.9921 32.651 40.6858 32.3637 41.4091 32.3637C42.1324 32.3637 42.8261 32.651 43.3376 33.1625C43.849 33.6739 44.1364 34.3676 44.1364 35.091C44.1364 35.8143 43.849 36.508 43.3376 37.0194C42.8261 37.5309 42.1324 37.8182 41.4091 37.8182ZM44.1364 21.4546L47.7 26H39.5909V21.4546M19.5909 37.8182C18.8676 37.8182 18.1739 37.5309 17.6624 37.0194C17.151 36.508 16.8636 35.8143 16.8636 35.091C16.8636 34.3676 17.151 33.6739 17.6624 33.1625C18.1739 32.651 18.8676 32.3637 19.5909 32.3637C20.3142 32.3637 21.0079 32.651 21.5194 33.1625C22.0308 33.6739 22.3182 34.3676 22.3182 35.091C22.3182 35.8143 22.0308 36.508 21.5194 37.0194C21.0079 37.5309 20.3142 37.8182 19.5909 37.8182ZM45.0455 18.7273H39.5909V11.4546H14.1364C12.1182 11.4546 10.5 13.0728 10.5 15.091V35.091H14.1364C14.1364 36.5376 14.711 37.925 15.734 38.9479C16.7569 39.9708 18.1443 40.5455 19.5909 40.5455C21.0375 40.5455 22.4249 39.9708 23.4479 38.9479C24.4708 37.925 25.0455 36.5376 25.0455 35.091H35.9545C35.9545 36.5376 36.5292 37.925 37.5521 38.9479C38.5751 39.9708 39.9625 40.5455 41.4091 40.5455C42.8557 40.5455 44.2431 39.9708 45.266 38.9479C46.289 37.925 46.8636 36.5376 46.8636 35.091H50.5V26L45.0455 18.7273Z" fill="#4CAF50"/>
    <path d="M61.34 25.6C61.34 23.952 61.708 22.48 62.444 21.184C63.196 19.872 64.212 18.856 65.492 18.136C66.788 17.4 68.236 17.032 69.836 17.032C71.708 17.032 73.348 17.512 74.756 18.472C76.164 19.432 77.148 20.76 77.708 22.456H73.844C73.46 21.656 72.916 21.056 72.212 20.656C71.524 20.256 70.724 20.056 69.812 20.056C68.836 20.056 67.964 20.288 67.196 20.752C66.444 21.2 65.852 21.84 65.42 22.672C65.004 23.504 64.796 24.48 64.796 25.6C64.796 26.704 65.004 27.68 65.42 28.528C65.852 29.36 66.444 30.008 67.196 30.472C67.964 30.92 68.836 31.144 69.812 31.144C70.724 31.144 71.524 30.944 72.212 30.544C72.916 30.128 73.46 29.52 73.844 28.72H77.708C77.148 30.432 76.164 31.768 74.756 32.728C73.364 33.672 71.724 34.144 69.836 34.144C68.236 34.144 66.788 33.784 65.492 33.064C64.212 32.328 63.196 31.312 62.444 30.016C61.708 28.72 61.34 27.248 61.34 25.6ZM91.9779 17.248V19.96H87.5139V34H84.1539V19.96H79.6899V17.248H91.9779ZM108.757 34H105.397L97.7894 22.504V34H94.4294V17.224H97.7894L105.397 28.744V17.224H108.757V34Z" fill="#4CAF50"/>
    </svg>